<svg width="165" height="165" viewBox="0 0 165 165" fill="none" xmlns="http://www.w3.org/2000/svg">
<path d="M45.5027 46.7626L45.6023 47.3008L42.3823 44.567L42.7181 44.5929L40.3331 47.3718L39.8153 46.9321L42.2003 44.1533L42.2787 44.4791L39.0352 41.7253L39.5853 41.7387L36.7377 45.0564L36.2245 44.6208L39.3456 40.9844L46.2893 46.8796L43.1683 50.5161L42.6551 50.0804L45.5027 46.7626Z" fill="#BCBDBD"/>
<path d="M33.6885 48.2796L34.0894 47.649L41.8486 52.4203L41.1793 53.473L31.5128 52.5305L31.5177 52.4538L38.9297 57.0116L38.5288 57.6422L30.7696 52.8709L31.4488 51.8025L41.0981 52.749L41.09 52.8309L33.6885 48.2796Z" fill="#BCBDBD"/>
<path d="M27.8749 58.958C28.1442 58.3434 28.5605 57.8602 29.1236 57.5084C29.6851 57.1604 30.3504 56.9752 31.1197 56.9527C31.889 56.9302 32.7231 57.1034 33.622 57.4721C34.5171 57.8394 35.2229 58.3002 35.7393 58.8546C36.2541 59.4128 36.5722 60.0149 36.6935 60.6608C36.8187 61.3082 36.7416 61.9506 36.4623 62.5878C36.2392 63.0969 35.9594 63.4892 35.6229 63.7649C35.2901 64.0421 34.9311 64.2307 34.5458 64.3307C34.1626 64.4359 33.7877 64.4712 33.4209 64.4364C33.0526 64.4054 32.7255 64.3313 32.4399 64.2141C32.4284 64.2094 32.417 64.2047 32.4056 64.2C32.3942 64.1953 32.3827 64.1906 32.3713 64.1859L32.6713 63.5016C32.6827 63.5063 32.6941 63.5109 32.7056 63.5156C32.717 63.5203 32.7284 63.525 32.7398 63.5297C32.9836 63.6297 33.2504 63.6925 33.5403 63.718C33.8302 63.7435 34.1171 63.7144 34.401 63.6306C34.6886 63.5485 34.9551 63.402 35.2003 63.1911C35.4493 62.9819 35.6547 62.6925 35.8167 62.323C36.0349 61.8252 36.0887 61.3179 35.9782 60.801C35.8715 60.2857 35.5971 59.7994 35.1549 59.3422C34.711 58.8887 34.0968 58.5011 33.3122 58.1792C32.7142 57.9338 32.1566 57.7807 31.6396 57.7198C31.1263 57.6605 30.6631 57.6818 30.25 57.7837C29.8406 57.8871 29.4874 58.0625 29.1903 58.3099C28.8969 58.5588 28.6701 58.8661 28.5098 59.2318C28.3016 59.7069 28.2094 60.1274 28.2334 60.4931C28.2557 60.8626 28.3447 61.1771 28.5005 61.4368C28.6602 61.698 28.834 61.8961 29.022 62.0311L30.3189 62.5632L31.2708 60.3913L31.865 60.635L30.633 63.4461L26.7365 61.8475L26.972 61.3102L27.9867 61.6864C27.9254 61.6213 27.8561 61.5128 27.7788 61.3609C27.7016 61.2091 27.6398 61.0169 27.5934 60.7844C27.5508 60.5534 27.5461 60.2823 27.5791 59.9711C27.6143 59.6652 27.7129 59.3275 27.8749 58.958Z" fill="#BCBDBD"/>
<path d="M33.9751 67.3277L34.2974 67.7618L30.193 66.7637L30.5095 66.6374L29.5382 70.1683L28.8781 70.0077L29.8494 66.4769L30.061 66.7316L25.9266 65.7262L26.4324 65.4935L25.2728 69.7091L24.6187 69.55L25.8897 64.9295L34.7405 67.0818L33.4695 71.7024L32.8155 71.5433L33.9751 67.3277Z" fill="#BCBDBD"/>
<path d="M23.9488 73.859L24.0402 73.1173L33.1128 73.928L32.9603 75.1661L23.8097 78.6241L23.7811 78.5534L32.4478 79.3278L32.3564 80.0694L23.2838 79.2587L23.4385 78.0023L32.5754 74.5554L32.6032 74.6322L23.9488 73.859Z" fill="#BCBDBD"/>
<path d="M32.6316 87.817L23.5443 88.4419L23.5177 87.6766L28.0891 87.3623L27.7191 87.7341L27.5452 82.7165L27.9391 83.0359L23.3678 83.3502L23.3412 82.585L32.4285 81.96L32.4551 82.7253L27.8344 83.0431L28.2229 82.6699L28.3968 87.6875L27.9844 87.3695L32.605 87.0517L32.6316 87.817Z" fill="#BCBDBD"/>
<path d="M32.4599 90.5595L32.9393 90.8086L28.8126 91.71L29.042 91.4578L29.7104 95.0583L29.0468 95.2032L28.3784 91.6027L28.6799 91.739L24.523 92.6471L24.8762 92.2161L25.6742 96.5149L25.0166 96.6585L24.1419 91.9469L33.0409 90.003L33.9155 94.7146L33.2579 94.8583L32.4599 90.5595Z" fill="#BCBDBD"/>
<path d="M26.0424 99.9341L34.6702 97.0136L34.8919 97.7336L26.264 100.654L26.0424 99.9341Z" fill="#BCBDBD"/>
<path d="M27.8173 104.903L36.0514 101.008L37.269 103.737C37.5926 104.463 37.6678 105.101 37.4944 105.652C37.3211 106.203 36.8697 106.651 36.1402 106.996C35.6937 107.208 35.2782 107.302 34.8938 107.279C34.5095 107.256 34.1797 107.168 33.9045 107.016C33.6331 106.862 33.4434 106.694 33.3355 106.513C33.4079 106.716 33.4411 106.937 33.4353 107.176C33.4294 107.416 33.3591 107.647 33.2243 107.87C33.0895 108.093 32.862 108.281 32.542 108.432C32.2219 108.584 31.8926 108.739 31.5539 108.9C31.2152 109.06 30.884 109.216 30.5602 109.37C30.4076 109.442 30.2787 109.516 30.1734 109.594C30.0735 109.673 30.0127 109.733 29.9909 109.775L29.6764 109.07C29.7036 109.03 29.7653 108.972 29.8615 108.894C29.963 108.819 30.092 108.744 30.2483 108.67C30.5535 108.526 30.8679 108.377 31.1917 108.224C31.5155 108.071 31.83 107.922 32.1351 107.778C32.5296 107.591 32.761 107.327 32.8293 106.985C32.8993 106.647 32.8354 106.256 32.6375 105.812L31.6765 103.658L32.0375 103.74L28.1243 105.591L27.8173 104.903ZM32.0933 103.713L32.2905 103.367L33.2566 105.533C33.3874 105.826 33.5799 106.061 33.834 106.236C34.0919 106.41 34.3875 106.507 34.7209 106.527C35.0559 106.551 35.4039 106.477 35.7649 106.307C36.3306 106.039 36.6698 105.703 36.7826 105.299C36.8991 104.894 36.8341 104.414 36.5875 103.862L35.6492 101.758L36.0512 101.841L32.0933 103.713Z" fill="#BCBDBD"/>
<path d="M33.4565 115.543C33.1714 115.109 32.9971 114.653 32.9335 114.175C32.8732 113.693 32.9203 113.207 33.0745 112.715C33.2345 112.224 33.5062 111.742 33.8897 111.268C34.2755 110.799 34.7718 110.358 35.3787 109.948C35.9891 109.535 36.5787 109.24 37.1477 109.064C37.7223 108.889 38.2621 108.822 38.767 108.863C39.2742 108.907 39.7319 109.052 40.1399 109.298C40.5502 109.547 40.8967 109.887 41.1795 110.317C41.4645 110.75 41.6406 111.205 41.7076 111.682C41.7769 112.162 41.7333 112.646 41.5768 113.135C41.4225 113.627 41.1542 114.107 40.7718 114.574C40.3951 115.043 39.9016 115.484 39.2913 115.897C38.6844 116.307 38.0919 116.601 37.5138 116.779C36.9381 116.96 36.3949 117.029 35.8843 116.987C35.3793 116.946 34.9183 116.803 34.5012 116.558C34.0898 116.315 33.7415 115.976 33.4565 115.543ZM34.0293 115.155C34.3302 115.613 34.7227 115.929 35.207 116.103C35.6934 116.281 36.2466 116.302 36.8666 116.165C37.4888 116.033 38.1545 115.726 38.8637 115.247C39.5764 114.764 40.1092 114.26 40.4621 113.733C40.8185 113.203 41.0058 112.679 41.0239 112.159C41.0444 111.644 40.9053 111.159 40.6066 110.705C40.3103 110.254 39.9223 109.938 39.4426 109.755C38.963 109.573 38.4137 109.547 37.7949 109.677C37.1795 109.805 36.5155 110.11 35.8029 110.593C35.0903 111.075 34.5541 111.582 34.1943 112.114C33.8345 112.645 33.6421 113.173 33.6171 113.697C33.5956 114.219 33.733 114.705 34.0293 115.155Z" fill="#BCBDBD"/>
<path d="M41.1458 124.478L47.273 117.738L48.8038 119.12C49.2499 119.523 49.5825 119.962 49.8016 120.437C50.0206 120.912 50.1254 121.409 50.1159 121.927C50.1064 122.446 49.9792 122.974 49.7343 123.513C49.4924 124.054 49.1305 124.59 48.6486 125.12C48.1695 125.647 47.6715 126.057 47.1546 126.351C46.6408 126.646 46.1255 126.825 45.6088 126.885C45.0921 126.945 44.5858 126.89 44.0898 126.72C43.5938 126.549 43.1228 126.263 42.6766 125.86L41.1458 124.478ZM41.8895 124.816L41.9194 124.269L43.0698 125.308C43.5465 125.738 44.0675 126.001 44.6327 126.095C45.2037 126.189 45.7838 126.111 46.3729 125.861C46.965 125.614 47.5311 125.193 48.0711 124.599C48.6167 123.999 48.9825 123.394 49.1685 122.786C49.3604 122.177 49.3799 121.595 49.227 121.041C49.08 120.487 48.7681 119.995 48.2915 119.564L47.141 118.525L47.6843 118.442L41.8895 124.816Z" fill="#BCBDBD"/>
<path d="M52.9555 123.274L53.4839 123.114L51.1 126.601L51.0888 126.267L54.1382 128.295L53.7548 128.856L50.7055 126.828L51.0234 126.713L48.6221 130.225L48.5746 129.682L52.2153 132.103L51.8354 132.659L47.845 130.005L52.9857 122.486L56.9761 125.139L56.5962 125.695L52.9555 123.274Z" fill="#BCBDBD"/>
<path d="M61.9926 137.425C61.4084 137.213 60.9493 136.94 60.6154 136.609C60.2854 136.278 60.0882 135.891 60.0239 135.448C59.9611 135 60.0381 134.5 60.255 133.948C60.2882 133.864 60.3153 133.795 60.3364 133.742C60.3575 133.688 60.3846 133.619 60.4177 133.535L61.1373 133.796C61.1057 133.877 61.0793 133.944 61.0582 133.998C61.0387 134.047 61.0123 134.114 60.9792 134.199C60.7246 134.846 60.7076 135.379 60.9282 135.796C61.1527 136.215 61.586 136.541 62.2282 136.775C62.8937 137.017 63.4437 137.075 63.8782 136.948C64.3127 136.822 64.6308 136.502 64.8327 135.988C64.9728 135.632 64.9998 135.305 64.9137 135.006C64.8291 134.704 64.6579 134.414 64.4001 134.136C64.1422 133.858 63.8249 133.574 63.4482 133.284C63.0186 132.948 62.6584 132.605 62.3674 132.254C62.078 131.899 61.8894 131.523 61.8017 131.128C61.7139 130.733 61.7604 130.305 61.9412 129.845C62.1174 129.397 62.3722 129.058 62.7055 128.829C63.0388 128.6 63.4297 128.477 63.8784 128.461C64.3309 128.446 64.8183 128.534 65.3406 128.724C65.8977 128.926 66.3435 129.187 66.6781 129.506C67.0181 129.822 67.2278 130.194 67.3074 130.622C67.3885 131.045 67.3243 131.523 67.115 132.056C67.0788 132.148 67.0479 132.227 67.0223 132.292C66.9982 132.353 66.9681 132.43 66.9319 132.522L66.2123 132.26C66.2455 132.175 66.2741 132.103 66.2982 132.041C66.3223 131.98 66.3509 131.907 66.3841 131.823C66.6281 131.202 66.6326 130.696 66.3976 130.304C66.1664 129.913 65.7336 129.602 65.0991 129.372C64.4956 129.152 63.9823 129.097 63.5592 129.205C63.1399 129.316 62.8347 129.614 62.6434 130.101C62.5018 130.461 62.481 130.795 62.5811 131.103C62.685 131.412 62.8728 131.71 63.1447 131.998C63.4165 132.285 63.7392 132.577 64.1129 132.875C64.555 133.225 64.9152 133.568 65.1937 133.906C65.4737 134.24 65.6482 134.595 65.7172 134.97C65.7878 135.342 65.7327 135.758 65.552 136.217C65.3712 136.677 65.1097 137.033 64.7673 137.285C64.4265 137.533 64.021 137.671 63.5509 137.697C63.0807 137.723 62.5613 137.632 61.9926 137.425Z" fill="#BCBDBD"/>
<path d="M71.1604 139.853C70.6508 139.756 70.2066 139.564 69.8278 139.279C69.4499 138.989 69.1468 138.619 68.9185 138.169C68.6951 137.716 68.5598 137.189 68.5125 136.589C68.4693 135.991 68.5276 135.334 68.6875 134.618C68.8483 133.899 69.076 133.277 69.3707 132.75C69.6703 132.221 70.0194 131.791 70.4179 131.461C70.8204 131.131 71.2565 130.907 71.726 130.787C72.1996 130.668 72.6891 130.656 73.1946 130.753C73.7042 130.85 74.1488 131.04 74.5285 131.322C74.9123 131.604 75.2163 131.97 75.4405 132.419C75.6689 132.869 75.8051 133.392 75.8492 133.987C75.8982 134.578 75.8424 135.234 75.6816 135.953C75.5217 136.668 75.2916 137.292 74.991 137.826C74.6945 138.36 74.3446 138.794 73.9411 139.127C73.5426 139.457 73.1057 139.686 72.6303 139.813C72.1599 139.937 71.6699 139.95 71.1604 139.853ZM71.3113 139.178C71.8491 139.281 72.3559 139.221 72.8317 138.997C73.3116 138.774 73.7314 138.396 74.0913 137.861C74.4551 137.327 74.7305 136.643 74.9173 135.807C75.105 134.967 75.1454 134.24 75.0383 133.625C74.9322 133.005 74.7057 132.51 74.3588 132.138C74.0159 131.766 73.5775 131.53 73.0437 131.428C72.514 131.327 72.0101 131.384 71.532 131.598C71.054 131.813 70.6334 132.185 70.2705 132.715C69.9084 133.241 69.6335 133.923 69.4458 134.763C69.2581 135.603 69.2168 136.334 69.322 136.958C69.4273 137.581 69.6524 138.083 69.9976 138.463C70.3436 138.839 70.7815 139.077 71.3113 139.178Z" fill="#BCBDBD"/>
<path d="M78.8012 132.178L79.1761 131.765L78.8829 136.028L78.6411 135.767L82.3132 135.894L82.2671 136.566L78.5949 136.438L78.8719 136.189L78.5681 140.606L77.8028 140.579L78.4277 131.492L83.1553 131.656L83.1091 132.328L78.8012 132.178Z" fill="#BCBDBD"/>
<path d="M90.7265 131.6L88.1158 131.87L88.2706 131.426L88.8843 140.267L88.1287 140.345L87.5151 131.504L87.7657 131.906L85.1182 132.18L85.0716 131.508L90.6799 130.929L90.7265 131.6Z" fill="#BCBDBD"/>
<path d="M95.602 139.115L91.9855 130.661L92.7487 130.455L96.1198 138.598L95.9992 138.624L95.9384 129.594L96.9043 129.333L100.888 137.305L100.77 137.343L100.094 128.473L100.863 128.265L101.451 137.537L100.336 137.838L96.5309 130.137L96.6263 130.112L96.7169 138.814L95.602 139.115Z" fill="#BCBDBD"/>
<path d="M104.847 136.183L103.605 126.708L104.679 126.219L110.613 133.556L109.888 133.886L104.34 126.95L104.351 126.945L105.572 135.853L104.847 136.183ZM104.927 133.358L104.663 132.739L108.287 131.088L108.552 131.707L104.927 133.358Z" fill="#BCBDBD"/>
<path d="M113.249 131.97L108.438 124.235L110.953 122.619C111.621 122.19 112.235 122.023 112.794 122.119C113.353 122.215 113.846 122.605 114.272 123.29C114.533 123.71 114.675 124.115 114.7 124.505C114.725 124.895 114.68 125.24 114.565 125.539C114.448 125.834 114.308 126.049 114.144 126.183C114.333 126.082 114.544 126.017 114.779 125.988C115.013 125.96 115.248 125.998 115.482 126.102C115.716 126.206 115.927 126.408 116.114 126.709C116.301 127.009 116.493 127.319 116.691 127.637C116.889 127.955 117.083 128.266 117.272 128.57C117.361 128.713 117.45 128.833 117.538 128.928C117.627 129.017 117.694 129.07 117.738 129.085L117.088 129.503C117.046 129.481 116.981 129.427 116.894 129.342C116.808 129.25 116.719 129.131 116.628 128.984C116.449 128.697 116.266 128.402 116.076 128.098C115.887 127.794 115.703 127.498 115.525 127.212C115.295 126.841 115.008 126.646 114.666 126.626C114.328 126.604 113.954 126.724 113.545 126.986L111.561 128.261L111.596 127.886L113.883 131.562L113.249 131.97ZM111.564 127.834L111.202 127.685L113.197 126.403C113.467 126.229 113.672 126.002 113.813 125.721C113.951 125.437 114.009 125.125 113.988 124.787C113.97 124.446 113.855 124.106 113.644 123.767C113.314 123.235 112.945 122.942 112.537 122.886C112.126 122.826 111.667 122.96 111.158 123.287L109.22 124.533L109.251 124.116L111.564 127.834Z" fill="#BCBDBD"/>
<path d="M115.495 120.082L115.481 119.532L118.215 122.752L117.889 122.673L120.668 120.288L121.108 120.806L118.329 123.191L118.303 122.855L121.057 126.099L120.519 125.999L123.836 123.152L124.272 123.665L120.636 126.786L114.74 119.842L118.377 116.721L118.812 117.234L115.495 120.082Z" fill="#BCBDBD"/>
<path d="M54.029 41.6249L50.1503 33.3831L52.7671 32.0305C53.3084 31.7507 53.8476 31.597 54.3848 31.5694C54.9239 31.5362 55.4384 31.6199 55.9284 31.8205C56.4203 32.0155 56.8705 32.32 57.2791 32.734C57.6876 33.148 58.0348 33.6587 58.3205 34.2658C58.6063 34.873 58.7824 35.4744 58.8489 36.0698C58.9155 36.6653 58.8746 37.2306 58.7263 37.7657C58.5799 38.2952 58.331 38.7759 57.9794 39.2077C57.6316 39.6376 57.187 39.9924 56.6457 40.2722L54.029 41.6249ZM55.4986 40.2261L54.3414 39.7961L55.7952 39.0446C56.1902 38.8405 56.4942 38.5444 56.7072 38.1564C56.9221 37.7628 57.0246 37.3092 57.0148 36.7956C57.0032 36.2782 56.8624 35.7327 56.5925 35.1591C56.3207 34.5817 55.9952 34.1363 55.6158 33.823C55.2347 33.5059 54.8316 33.3207 54.4063 33.2673C53.9829 33.2082 53.5737 33.2808 53.1788 33.485L51.725 34.2364L52.1039 33.0125L55.4986 40.2261Z" fill="white"/>
<path d="M62.1343 29.6308L62.734 28.4882L63.6661 32.1445L63.1191 31.7464L66.3268 30.7479L66.6929 32.1841L63.4853 33.1825L63.7638 32.5275L64.7035 36.2136L63.6522 35.585L67.9271 34.2543L68.2932 35.6905L63.0042 37.3368L60.754 28.5103L66.0431 26.864L66.4092 28.3002L62.1343 29.6308Z" fill="white"/>
<path d="M78.0403 24.8997L75.7935 31.1843L75.9912 34.3152L74.0974 34.5497L73.8998 31.4189L70.9128 25.7824L72.9229 25.5334L75.1694 30.2989L74.4094 30.393L76.024 25.1494L78.0403 24.8997Z" fill="white"/>
<path d="M83.4807 34.0356L82.3721 24.833L84.4858 24.971L85.0955 32.9549L85.0092 32.9493L87.5916 25.1737L89.7114 25.3121L86.34 34.2222L83.4807 34.0356Z" fill="white"/>
<path d="M91.3666 34.9279L93.8424 26.162L95.6859 26.5771L93.2102 35.3429L91.3666 34.9279Z" fill="white"/>
<path d="M99.9494 37.6321C99.3363 37.3913 98.8385 37.0831 98.4561 36.7076C98.0775 36.3336 97.8402 35.9045 97.7443 35.4206C97.6539 34.9343 97.7346 34.407 97.9865 33.8387C98.0132 33.7785 98.0374 33.7239 98.0591 33.675C98.0825 33.6223 98.1075 33.5658 98.1342 33.5056L99.9218 34.2076C99.8968 34.2641 99.8743 34.3149 99.8543 34.3601C99.8359 34.4015 99.8142 34.4504 99.7892 34.5068C99.6174 34.8945 99.5967 35.2355 99.7272 35.5298C99.8577 35.8241 100.141 36.057 100.578 36.2286C101.019 36.4016 101.388 36.4671 101.686 36.4249C101.985 36.3789 102.205 36.1978 102.345 35.8817C102.443 35.6596 102.44 35.4285 102.335 35.1884C102.234 34.9498 102.059 34.7045 101.811 34.4524C101.568 34.198 101.277 33.9357 100.938 33.6655C100.571 33.3668 100.253 33.0386 99.9843 32.6811C99.7154 32.3236 99.5432 31.9356 99.4677 31.5171C99.3961 31.1001 99.4679 30.6489 99.6831 30.1633C99.9 29.674 100.217 29.3101 100.633 29.0714C101.051 28.829 101.528 28.7069 102.064 28.7054C102.601 28.7 103.158 28.8102 103.733 29.0359C104.334 29.2722 104.824 29.5728 105.202 29.9379C105.586 30.3006 105.827 30.7157 105.926 31.1831C106.03 31.6483 105.962 32.1518 105.722 32.6938C105.695 32.7541 105.67 32.8105 105.647 32.8632C105.625 32.9121 105.6 32.9686 105.572 33.0326L103.79 32.3328C103.808 32.2914 103.827 32.2481 103.847 32.203C103.867 32.1578 103.886 32.1145 103.905 32.0731C104.067 31.708 104.087 31.387 103.967 31.11C103.851 30.8345 103.574 30.611 103.137 30.4395C102.716 30.2739 102.355 30.2205 102.054 30.2793C101.758 30.3395 101.54 30.5259 101.402 30.8383C101.302 31.0641 101.299 31.2884 101.394 31.5112C101.492 31.7355 101.66 31.9669 101.896 32.2055C102.132 32.4441 102.408 32.6985 102.725 32.9686C103.154 33.3404 103.51 33.7054 103.792 34.0637C104.079 34.4197 104.257 34.7964 104.323 35.1938C104.392 35.5875 104.319 36.0271 104.103 36.5126C103.883 37.0094 103.565 37.3817 103.149 37.6294C102.734 37.8771 102.249 38.0006 101.696 37.9999C101.149 37.997 100.566 37.8744 99.9494 37.6321Z" fill="white"/>
<path d="M108.503 42.1153C108.026 41.8075 107.637 41.4346 107.338 40.9966C107.038 40.5586 106.843 40.073 106.752 39.5396C106.662 39.0062 106.691 38.4397 106.839 37.8401C106.99 37.237 107.278 36.6222 107.704 35.9955C108.132 35.3654 108.597 34.8671 109.099 34.5006C109.608 34.133 110.13 33.8871 110.667 33.7632C111.204 33.6392 111.737 33.6276 112.265 33.7284C112.794 33.8291 113.299 34.0346 113.78 34.3446C114.257 34.6524 114.647 35.0236 114.949 35.4582C115.254 35.895 115.453 36.3784 115.546 36.9083C115.639 37.4383 115.61 38.002 115.458 38.5994C115.308 39.1934 115.019 39.8054 114.591 40.4355C114.166 41.0622 113.698 41.5611 113.187 41.9322C112.682 42.302 112.158 42.5496 111.616 42.6747C111.077 42.8021 110.54 42.816 110.005 42.7164C109.475 42.619 108.974 42.4187 108.503 42.1153ZM109.367 40.8432C109.689 41.0506 110.045 41.1556 110.437 41.1581C110.831 41.1629 111.243 41.0263 111.67 40.7485C112.1 40.4673 112.529 40.0117 112.956 39.3816C113.387 38.7481 113.646 38.1859 113.736 37.6952C113.829 37.2066 113.795 36.7908 113.635 36.4477C113.478 36.1012 113.238 35.8242 112.916 35.6167C112.594 35.4093 112.237 35.3015 111.845 35.2933C111.458 35.284 111.052 35.4165 110.627 35.6909C110.202 35.9653 109.774 36.4193 109.344 37.0528C108.914 37.6863 108.651 38.249 108.556 38.741C108.461 39.2329 108.491 39.6538 108.646 40.0038C108.805 40.3559 109.045 40.6357 109.367 40.8432Z" fill="white"/>
<path d="M114.929 47.0475L113.606 45.7244L120.047 39.2836L122.152 41.3883L118.357 49.4973L118.073 49.327L124.082 43.3184L125.401 44.6371L118.96 51.078L116.842 48.9602L120.619 40.8687L120.92 41.0564L114.929 47.0475Z" fill="white"/>
<path d="M132.903 56.5235C133.19 57.0933 133.348 57.6028 133.376 58.0519C133.406 58.5046 133.319 58.8994 133.116 59.2362C132.916 59.571 132.619 59.8463 132.226 60.062C131.832 60.2778 131.457 60.3828 131.099 60.3771C130.745 60.3695 130.431 60.2859 130.157 60.1264C129.887 59.9649 129.68 59.7641 129.536 59.524C129.66 59.789 129.728 60.094 129.741 60.439C129.757 60.782 129.674 61.1235 129.49 61.4634C129.31 61.8013 128.991 62.0959 128.533 62.3473C128.1 62.5848 127.666 62.7075 127.232 62.7154C126.804 62.725 126.392 62.5876 125.995 62.3031C125.601 62.0166 125.239 61.5443 124.907 60.8862L123.295 57.6878L131.282 53.3085L132.903 56.5235ZM128.409 56.9742L128.594 56.1478L129.411 57.7691C129.63 58.2029 129.884 58.4788 130.174 58.5968C130.467 58.7127 130.769 58.6856 131.08 58.5154C131.289 58.4006 131.438 58.2606 131.525 58.0955C131.616 57.9283 131.648 57.7369 131.622 57.5211C131.597 57.3053 131.517 57.0651 131.384 56.8004L130.419 54.8868L131.61 55.2195L128.409 56.9742ZM126.046 59.8398C126.257 60.2589 126.511 60.5255 126.808 60.6395C127.111 60.7551 127.424 60.7239 127.749 60.5458C127.933 60.4448 128.077 60.3236 128.181 60.1823C128.287 60.0445 128.355 59.8921 128.386 59.725C128.421 59.5559 128.419 59.3739 128.38 59.1791C128.347 58.9859 128.28 58.7882 128.178 58.586L127.305 56.8545L128.057 57.1671L124.624 59.0495L125.037 57.838L126.046 59.8398Z" fill="white"/>
<path d="M128.021 70.1589C127.872 69.6104 127.832 69.0658 127.898 68.5251C127.965 67.9844 128.14 67.4713 128.422 66.9858C128.703 66.5003 129.094 66.0636 129.594 65.6757C130.098 65.2866 130.71 64.9745 131.43 64.7397C132.155 64.5036 132.82 64.3969 133.427 64.4196C134.038 64.445 134.581 64.5773 135.054 64.8165C135.528 65.0556 135.925 65.3824 136.246 65.7967C136.566 66.2111 136.801 66.6945 136.951 67.247C137.099 67.7954 137.142 68.3394 137.079 68.8788C137.017 69.4223 136.847 69.9361 136.569 70.4203C136.291 70.9045 135.902 71.3385 135.401 71.7225C134.903 72.1051 134.293 72.4145 133.569 72.6506C132.848 72.8855 132.181 72.9908 131.565 72.9667C130.954 72.9452 130.41 72.8136 129.931 72.5717C129.454 72.3339 129.052 72.0064 128.727 71.5893C128.402 71.1762 128.167 70.6994 128.021 70.1589ZM129.483 69.6822C129.582 70.0518 129.775 70.3611 130.059 70.6099C130.345 70.8628 130.734 71.0125 131.228 71.059C131.726 71.1043 132.337 71.0089 133.061 70.7727C133.789 70.5354 134.346 70.2478 134.732 69.9101C135.119 69.5764 135.365 69.2213 135.472 68.8448C135.583 68.467 135.589 68.0933 135.489 67.7237C135.389 67.3541 135.198 67.0422 134.916 66.788C134.64 66.5366 134.257 66.387 133.767 66.3392C133.277 66.2914 132.668 66.3861 131.94 66.6235C131.212 66.8609 130.652 67.1471 130.261 67.4821C129.871 67.8171 129.618 68.1741 129.503 68.5532C129.39 68.9363 129.383 69.3126 129.483 69.6822Z" fill="white"/>
<path d="M129.286 76.3936L138.323 75.2553L138.564 78.9403C138.626 79.8934 138.456 80.6314 138.053 81.1543C137.655 81.6808 137.052 81.9949 136.243 82.0968C135.777 82.1555 135.373 82.1152 135.031 81.9762C134.692 81.8407 134.425 81.6528 134.228 81.4125C134.031 81.1763 133.915 80.9383 133.879 80.6985C133.879 80.9512 133.831 81.1954 133.735 81.4311C133.643 81.6704 133.486 81.8766 133.263 82.0498C133.039 82.2229 132.731 82.3341 132.339 82.3835C132.049 82.4201 131.763 82.4561 131.481 82.4916C131.2 82.5271 130.912 82.5633 130.617 82.6004C130.417 82.6256 130.232 82.6634 130.063 82.7138C129.897 82.7677 129.78 82.8301 129.71 82.901L129.585 80.9845C129.664 80.9208 129.783 80.8623 129.945 80.8088C130.11 80.7549 130.293 80.7153 130.493 80.6901C130.754 80.6571 131.003 80.6258 131.24 80.5959C131.481 80.5656 131.732 80.5339 131.994 80.501C132.349 80.4562 132.617 80.3293 132.797 80.1203C132.981 79.9107 133.06 79.6026 133.033 79.1958L132.91 77.3102L133.55 77.7452L129.408 78.267L129.286 76.3936ZM133.721 77.7236L134.38 77.125L134.505 79.0353C134.521 79.2818 134.591 79.4946 134.714 79.6738C134.836 79.853 135.004 79.9852 135.215 80.0704C135.427 80.1597 135.67 80.1871 135.943 80.1526C136.327 80.1043 136.618 79.9496 136.815 79.6887C137.012 79.4319 137.097 79.094 137.07 78.6749L136.945 76.7584L137.6 77.2351L133.721 77.7236Z" fill="white"/>
<path d="M128.806 89.686C128.898 88.9716 129.161 88.3327 129.595 87.7695C130.032 87.2106 130.618 86.7815 131.353 86.4822C132.092 86.1872 132.966 86.0746 133.977 86.1445C134.983 86.214 135.812 86.4546 136.463 86.8662C137.114 87.2778 137.582 87.8024 137.868 88.4401C138.154 89.0819 138.248 89.7824 138.149 90.5418C138.067 91.1747 137.895 91.7024 137.633 92.1251C137.37 92.5518 137.061 92.8909 136.705 93.1423C136.349 93.3978 135.984 93.5765 135.61 93.6783C135.24 93.7805 134.906 93.8212 134.606 93.8005C134.593 93.7996 134.581 93.7988 134.569 93.7979C134.556 93.7971 134.544 93.7962 134.532 93.7954L134.772 91.9459C134.784 91.9467 134.796 91.9476 134.809 91.9484C134.821 91.9493 134.833 91.9501 134.846 91.951C135.035 91.9641 135.226 91.9423 135.42 91.8856C135.618 91.8293 135.8 91.7368 135.966 91.6082C136.131 91.4837 136.272 91.3225 136.389 91.1246C136.505 90.9308 136.581 90.7012 136.615 90.4358C136.662 90.0765 136.603 89.7265 136.44 89.3857C136.277 89.0449 135.977 88.7543 135.54 88.514C135.107 88.274 134.503 88.1272 133.726 88.0735C133.135 88.0327 132.631 88.0555 132.213 88.142C131.795 88.2326 131.453 88.3675 131.185 88.5467C130.921 88.7262 130.72 88.9368 130.581 89.1785C130.441 89.4242 130.354 89.6818 130.319 89.9513C130.271 90.3228 130.292 90.6374 130.383 90.8949C130.477 91.1568 130.608 91.3656 130.774 91.5213C130.94 91.677 131.111 91.7815 131.287 91.8348L131.878 91.8757L132.11 90.0874L133.49 90.1828L133.04 93.6552L128.481 93.3401L128.61 92.3419L129.637 92.2398C129.563 92.2017 129.469 92.1252 129.356 92.0103C129.242 91.8953 129.132 91.7353 129.026 91.5303C128.924 91.3296 128.849 91.0752 128.802 90.7671C128.75 90.4628 128.751 90.1025 128.806 89.686Z" fill="white"/>
<path d="M134.57 99.327L135.187 100.386L131.542 99.4095L132.2 99.1389L131.165 102.335L129.733 101.951L130.768 98.7553L131.16 99.3072L127.486 98.3227L128.635 97.7367L127.256 101.996L125.824 101.613L127.53 96.3426L136.329 98.7L134.622 103.97L133.191 103.586L134.57 99.327Z" fill="white"/>
<path d="M122.695 107.672C123 107.088 123.364 106.62 123.787 106.265C124.208 105.915 124.672 105.703 125.179 105.631C125.687 105.564 126.222 105.665 126.783 105.933C126.842 105.961 126.896 105.987 126.945 106.01C126.997 106.035 127.052 106.062 127.112 106.09L126.22 107.791C126.164 107.765 126.114 107.741 126.07 107.719C126.029 107.7 125.981 107.677 125.925 107.65C125.542 107.467 125.194 107.433 124.878 107.546C124.563 107.66 124.297 107.925 124.079 108.341C123.859 108.76 123.757 109.115 123.772 109.405C123.791 109.697 123.957 109.917 124.269 110.066C124.488 110.171 124.726 110.178 124.983 110.086C125.238 109.998 125.507 109.84 125.79 109.61C126.074 109.386 126.372 109.116 126.682 108.799C127.024 108.456 127.391 108.162 127.785 107.917C128.178 107.672 128.593 107.522 129.031 107.466C129.467 107.415 129.924 107.504 130.403 107.733C130.886 107.964 131.231 108.286 131.437 108.699C131.647 109.114 131.727 109.581 131.678 110.1C131.633 110.621 131.467 111.155 131.18 111.702C130.88 112.275 130.524 112.736 130.113 113.087C129.703 113.443 129.254 113.659 128.763 113.734C128.275 113.815 127.763 113.728 127.228 113.472C127.169 113.444 127.113 113.417 127.061 113.392C127.013 113.369 126.957 113.343 126.894 113.312L127.783 111.617C127.824 111.636 127.866 111.657 127.911 111.678C127.955 111.699 127.998 111.72 128.039 111.739C128.399 111.912 128.728 111.945 129.024 111.841C129.318 111.74 129.574 111.482 129.792 111.066C130.003 110.665 130.092 110.318 130.06 110.024C130.026 109.734 129.855 109.516 129.546 109.368C129.324 109.262 129.093 109.249 128.855 109.332C128.615 109.417 128.361 109.57 128.093 109.788C127.825 110.007 127.537 110.264 127.229 110.559C126.806 110.958 126.397 111.287 126.002 111.545C125.608 111.808 125.204 111.964 124.789 112.012C124.377 112.061 123.932 111.971 123.453 111.742C122.963 111.508 122.61 111.184 122.394 110.771C122.179 110.358 122.098 109.883 122.151 109.348C122.206 108.818 122.387 108.259 122.695 107.672Z" fill="white"/>
</svg>
