<svg width="192" height="216" viewBox="0 0 192 216" fill="none" xmlns="http://www.w3.org/2000/svg">
<path d="M184 184C179.757 184 175.687 182.314 172.686 179.314C169.686 176.313 168 172.243 168 168V160C167.993 154.62 166.635 149.328 164.049 144.61C161.462 139.892 157.732 135.9 153.2 133C160.267 127.817 166.014 121.042 169.976 113.224C173.937 105.406 176.001 96.7643 176 88V80C175.9 70.0628 173.249 60.3179 168.3 51.7C170.738 43.8066 171.517 35.4943 170.587 27.2854C169.658 19.0765 167.041 11.1486 162.9 4C162.216 2.77409 161.214 1.75541 160 1.05141C158.786 0.347408 157.404 -0.0158308 156 3.04251e-07C146.681 -0.0234286 137.486 2.135 129.151 6.30251C120.816 10.47 113.573 16.5309 108 24H84C78.4275 16.5309 71.1838 10.47 62.8487 6.30251C54.5137 2.135 45.3188 -0.0234286 36 3.04251e-07C34.5964 -0.0158308 33.2145 0.347408 32.0001 1.05141C30.7857 1.75541 29.7838 2.77409 29.1 4C24.9592 11.1486 22.3419 19.0765 21.4126 27.2854C20.4833 35.4943 21.2621 43.8066 23.7 51.7C18.7513 60.3179 16.0998 70.0628 16 80V88C15.9994 96.7643 18.0632 105.406 22.0244 113.224C25.9856 121.042 31.7326 127.817 38.8 133C34.268 135.9 30.5376 139.892 27.9515 144.61C25.3654 149.328 24.0066 154.62 24 160V168C24 172.243 22.3143 176.313 19.3137 179.314C16.3131 182.314 12.2435 184 8 184C5.87827 184 3.84344 184.843 2.34315 186.343C0.842856 187.843 0 189.878 0 192C0 194.122 0.842856 196.157 2.34315 197.657C3.84344 199.157 5.87827 200 8 200C16.4788 199.974 24.6028 196.594 30.5983 190.598C36.5937 184.603 39.9736 176.479 40 168V160C40 155.757 41.6857 151.687 44.6863 148.686C47.6869 145.686 51.7565 144 56 144H68V184C68 188.243 66.3143 192.313 63.3137 195.314C60.3131 198.314 56.2435 200 52 200C49.8783 200 47.8434 200.843 46.3431 202.343C44.8429 203.843 44 205.878 44 208C44 210.122 44.8429 212.157 46.3431 213.657C47.8434 215.157 49.8783 216 52 216C60.4788 215.974 68.6028 212.594 74.5983 206.598C80.5937 200.603 83.9736 192.479 84 184V144H108V184C108.026 192.479 111.406 200.603 117.402 206.598C123.397 212.594 131.521 215.974 140 216C142.122 216 144.157 215.157 145.657 213.657C147.157 212.157 148 210.122 148 208C148 205.878 147.157 203.843 145.657 202.343C144.157 200.843 142.122 200 140 200C135.757 200 131.687 198.314 128.686 195.314C125.686 192.313 124 188.243 124 184V144H136C140.243 144 144.313 145.686 147.314 148.686C150.314 151.687 152 155.757 152 160V168C152.026 176.479 155.406 184.603 161.402 190.598C167.397 196.594 175.521 199.974 184 200C186.122 200 188.157 199.157 189.657 197.657C191.157 196.157 192 194.122 192 192C192 189.878 191.157 187.843 189.657 186.343C188.157 184.843 186.122 184 184 184ZM32 88V80C32.147 72.0017 34.5378 64.2056 38.9 57.5C39.732 56.4205 40.2706 55.144 40.4633 53.7948C40.6561 52.4455 40.4964 51.0693 40 49.8C37.9227 44.4381 36.9241 38.7189 37.0614 32.9703C37.1987 27.2217 38.4692 21.5567 40.8 16.3C47.344 16.9806 53.6491 19.1334 59.2429 22.597C64.8367 26.0606 69.574 30.7453 73.1 36.3C73.8186 37.4275 74.8084 38.3569 75.9788 39.0032C77.1492 39.6496 78.463 39.9923 79.8 40H112.2C113.537 39.9923 114.851 39.6496 116.021 39.0032C117.192 38.3569 118.181 37.4275 118.9 36.3C122.426 30.7453 127.163 26.0606 132.757 22.597C138.351 19.1334 144.656 16.9806 151.2 16.3C153.531 21.5567 154.801 27.2217 154.939 32.9703C155.076 38.7189 154.077 44.4381 152 49.8C151.532 51.0742 151.387 52.4448 151.579 53.7887C151.771 55.1327 152.294 56.4079 153.1 57.5C157.462 64.2056 159.853 72.0017 160 80V88C160 93.2529 158.965 98.4543 156.955 103.307C154.945 108.16 151.999 112.57 148.284 116.284C144.57 119.999 140.16 122.945 135.307 124.955C130.454 126.965 125.253 128 120 128H72C61.3913 128 51.2172 123.786 43.7157 116.284C36.2143 108.783 32 98.6087 32 88Z" fill="#2A81D1"/>
</svg>
