<svg width="32" height="32" viewBox="0 0 32 32" fill="none" xmlns="http://www.w3.org/2000/svg">
<path d="M22.6803 9.3199L22.6831 9.32161M14.3405 28.3281H17.6591C21.3928 28.3281 23.2596 28.3281 24.6857 27.6015C25.9401 26.9624 26.96 25.9425 27.5992 24.6881C28.3258 23.262 28.3258 21.3951 28.3258 17.6615V14.3428C28.3258 10.6092 28.3258 8.74232 27.5992 7.31624C26.96 6.06182 25.9401 5.04195 24.6857 4.4028C23.2596 3.67617 21.3928 3.67617 17.6591 3.67617H14.3405C10.6068 3.67617 8.73997 3.67617 7.31389 4.4028C6.05948 5.04195 5.03961 6.06182 4.40045 7.31624C3.67383 8.74232 3.67383 10.6092 3.67383 14.3428V17.6615C3.67383 21.3951 3.67383 23.262 4.40045 24.6881C5.03961 25.9425 6.05948 26.9624 7.31389 27.6015C8.73997 28.3281 10.6068 28.3281 14.3405 28.3281ZM20.8865 16.0026C20.8865 18.7 18.6998 20.8867 16.0024 20.8867C13.305 20.8867 11.1183 18.7 11.1183 16.0026C11.1183 13.3052 13.305 11.1185 16.0024 11.1185C18.6998 11.1185 20.8865 13.3052 20.8865 16.0026Z" stroke="#2A81D1" stroke-width="3" stroke-miterlimit="10" stroke-linecap="round" stroke-linejoin="round"/>
</svg>
