<svg width="32" height="32" viewBox="0 0 32 32" fill="none" xmlns="http://www.w3.org/2000/svg">
<path d="M9.7049 22.3808V14.3663M15.3525 22.3808V20.1386M15.3525 20.1386V14.3663M15.3525 20.1386C15.3525 18.7263 16.1766 14.3663 19.0504 14.3663C20.8457 14.3663 22.3011 15.8217 22.3011 17.617V22.3808M9.69987 9.62044L9.70264 9.62215M24.443 28.4426H7.55762C5.34828 28.4426 3.55762 26.652 3.55762 24.4426V7.55729C3.55762 5.34796 5.34828 3.55729 7.55762 3.55729H24.443C26.6523 3.55729 28.443 5.34796 28.443 7.55729V24.4426C28.443 26.652 26.6523 28.4426 24.443 28.4426Z" stroke="#2A81D1" stroke-width="3" stroke-miterlimit="10" stroke-linecap="round" stroke-linejoin="round"/>
</svg>
