<svg width="109" height="92" viewBox="0 0 109 92" fill="none" xmlns="http://www.w3.org/2000/svg">
<path d="M32.2181 49.9939H58.9882C59.9139 49.9939 60.7191 49.6741 61.4006 49.0325C62.0489 48.432 62.4108 47.629 62.4108 46.7047C62.4108 45.6602 62.064 44.8351 61.4006 44.2146C60.7382 43.591 59.9119 43.2873 58.9882 43.2873H0V10.2203L16.5152 0C16.5152 8.39079 16.5152 16.7856 16.5152 25.1764H58.9882C64.8685 25.1764 69.9818 27.2295 74.2086 31.5271C78.4746 35.8619 80.5704 40.9615 80.5704 46.7047C80.5704 52.5673 78.4324 57.5847 74.2086 61.7641C69.7788 65.9805 64.7056 68.1098 58.9882 68.1098H25.4683L8.65363 68.1258L0.526715 49.9939H32.2181ZM62.1706 75.2956C70.02 75.2956 76.7889 72.4425 82.4622 66.8206C88.061 61.2398 90.8374 54.5331 90.8374 46.7047C90.8374 38.7901 88.061 32.0494 82.4622 26.4666C76.7889 20.8036 70.02 17.9866 62.1706 17.9866H23.7253V0H62.1706C68.6138 0 74.6539 1.20599 80.3302 3.65005C86.0064 6.06403 90.958 9.39829 95.1828 13.6488C99.5322 17.9525 102.922 22.9288 105.334 28.5889C107.789 34.2158 109 40.2798 109 46.7047C109 53.0475 107.789 59.0303 105.334 64.6943C102.922 70.3564 99.5322 75.3367 95.1828 79.6364C86.8558 88.0041 78.3238 92 66.712 92H47.6316L19.3377 91.9418L11.837 75.2184L48.7182 75.2956H62.1706V75.2956Z" fill="#2A81D1"/>
<path d="M32.2181 49.9939H58.9882C59.9139 49.9939 60.7191 49.6741 61.4006 49.0325C62.0489 48.432 62.4108 47.629 62.4108 46.7047C62.4108 45.6602 62.064 44.8351 61.4006 44.2146C60.7382 43.591 59.9119 43.2873 58.9882 43.2873H0V10.2203L16.5152 0C16.5152 8.39079 16.5152 16.7856 16.5152 25.1764H58.9882C64.8685 25.1764 69.9818 27.2295 74.2086 31.5271C78.4746 35.8619 80.5704 40.9615 80.5704 46.7047C80.5704 52.5673 78.4324 57.5847 74.2086 61.7641C69.7788 65.9805 64.7056 68.1098 58.9882 68.1098H25.4683L8.65363 68.1258L0.526715 49.9939H32.2181ZM62.1706 75.2956C70.02 75.2956 76.7889 72.4425 82.4622 66.8206C88.061 61.2398 90.8374 54.5331 90.8374 46.7047C90.8374 38.7901 88.061 32.0494 82.4622 26.4666C76.7889 20.8036 70.02 17.9866 62.1706 17.9866H23.7253V0H62.1706C68.6138 0 74.6539 1.20599 80.3302 3.65005C86.0064 6.06403 90.958 9.39829 95.1828 13.6488C99.5322 17.9525 102.922 22.9288 105.334 28.5889C107.789 34.2158 109 40.2798 109 46.7047C109 53.0475 107.789 59.0303 105.334 64.6943C102.922 70.3564 99.5322 75.3367 95.1828 79.6364C86.8558 88.0041 78.3238 92 66.712 92H47.6316L19.3377 91.9418L11.837 75.2184L48.7182 75.2956H62.1706V75.2956Z" fill="url(#paint0_linear_418_159)"/>
<defs>
<linearGradient id="paint0_linear_418_159" x1="116.109" y1="21.1351" x2="-14.0204" y2="118.237" gradientUnits="userSpaceOnUse">
<stop stop-color="#2A81D1"/>
<stop offset="1" stop-color="#002F5A"/>
</linearGradient>
</defs>
</svg>
