<svg width="34" height="34" viewBox="0 0 34 34" fill="none" xmlns="http://www.w3.org/2000/svg">
<path d="M17 0.5C7.8875 0.5 0.5 7.8875 0.5 17C0.5 20.0488 1.33044 22.9023 2.77344 25.3525L0.661133 33.2627L8.95801 31.4067C11.3378 32.738 14.0795 33.5 17 33.5C26.1125 33.5 33.5 26.1125 33.5 17C33.5 7.8875 26.1125 0.5 17 0.5ZM17 3.5C24.4557 3.5 30.5 9.54425 30.5 17C30.5 24.4557 24.4557 30.5 17 30.5C14.2018 30.5 11.6028 29.6487 9.44727 28.1914L4.84326 29.2212L6.01514 24.8296C4.43789 22.6201 3.5 19.922 3.5 17C3.5 9.54425 9.54425 3.5 17 3.5ZM11.3545 9.30225C11.0792 9.30225 10.6368 9.40398 10.2603 9.81348C9.8905 10.2237 8.83496 11.2091 8.83496 13.2236C8.83496 15.2306 10.2928 17.1776 10.4976 17.4453C10.7023 17.7206 13.3254 21.9794 17.4834 23.6167C20.9304 24.9742 21.6347 24.7053 22.3892 24.6348C23.1377 24.5703 24.8062 23.65 25.146 22.6968C25.485 21.7428 25.4847 20.9247 25.3789 20.7529C25.2762 20.5864 25.0076 20.4831 24.5981 20.2783C24.1886 20.0728 22.1797 19.0832 21.8032 18.9482C21.432 18.8132 21.1569 18.7424 20.8892 19.1519C20.6139 19.5614 19.8336 20.483 19.5898 20.7515C19.3536 21.0267 19.1175 21.0588 18.708 20.854C18.2985 20.6493 16.9816 20.2194 15.4209 18.8252C14.2066 17.7444 13.3866 16.406 13.1504 15.998C12.9134 15.5893 13.1244 15.3664 13.3291 15.1616C13.5151 14.9831 13.7396 14.6874 13.9443 14.4512C14.1423 14.2082 14.2122 14.0423 14.3472 13.7671C14.4889 13.4993 14.4169 13.2555 14.3149 13.0508C14.2137 12.8453 13.4197 10.8241 13.0552 10.0186C12.7492 9.34055 12.4293 9.32071 12.1353 9.31396C11.8975 9.30196 11.6222 9.30225 11.3545 9.30225Z" fill="white"/>
</svg>
